<svg xmlns="http://www.w3.org/2000/svg" width="24" height="24.012" viewBox="0 0 24 24.012">
  <g id="Group_11" data-name="Group 11" transform="translate(-740.5 -1429)">
    <path id="Path_607" data-name="Path 607" d="M748.5,1436.6v-1.77a3,3,0,1,0-2,0v2.184a1,1,0,0,0,.293.707l2.707,2.707v11.586a1,1,0,0,0,2,0v-12a1,1,0,0,0-.293-.707Z" fill="#722ed1"/>
    <path id="Path_608" data-name="Path 608" d="M744.5,1445.6v-1.77a3,3,0,1,0-2,0v2.184a1,1,0,0,0,.293.707l2.707,2.707v2.586a1,1,0,1,0,2,0v-3a1,1,0,0,0-.293-.707Z" fill="#722ed1"/>
    <path id="Path_609" data-name="Path 609" d="M758.5,1437.012v-2.184a3,3,0,1,0-2,0v1.77l-2.707,2.707a1,1,0,0,0-.293.707v12a1,1,0,1,0,2,0v-11.586l2.707-2.707A1,1,0,0,0,758.5,1437.012Z" fill="#722ed1"/>
    <path id="Path_610" data-name="Path 610" d="M764.5,1441.012a3,3,0,1,0-4,2.816v1.77l-2.707,2.707a1,1,0,0,0-.293.707v3a1,1,0,0,0,2,0v-2.586l2.707-2.707a1,1,0,0,0,.293-.707v-2.184a3,3,0,0,0,2-2.816Z" fill="#722ed1"/>
  </g>
</svg>
