<svg xmlns="http://www.w3.org/2000/svg" width="23.224" height="24" viewBox="0 0 23.224 24">
  <g id="Group_28" data-name="Group 28" transform="translate(-254 -1964)">
    <path id="Path_681" data-name="Path 681" d="M266.387,1966.4V1964h-1.545v2.4a3.87,3.87,0,1,0,1.548,0Z" fill="#722ed1"/>
    <path id="Path_682" data-name="Path 682" d="M273.8,1981.032h1.881v-1.548h-2.66l-3.047-6.087a5.44,5.44,0,0,1-2.529,1.89l2.1,4.2h-3.158v-1.552h-1.548v1.548h-3.157l2.1-4.2a5.437,5.437,0,0,1-2.529-1.89l-3.053,6.091h-2.652v1.548h1.881L254,1987.881a3.979,3.979,0,0,0,4.524-2.081l2.384-4.767h3.931v1.548h1.548v-1.549h3.931l2.382,4.768a3.979,3.979,0,0,0,4.524,2.081Z" fill="#722ed1"/>
  </g>
</svg>
