<svg xmlns="http://www.w3.org/2000/svg" width="40" height="40" viewBox="0 0 40 40">
  <g id="icon_1" data-name="icon 1" transform="translate(-373.5 -1008)">
    <circle id="Ellipse_4" data-name="Ellipse 4" cx="20" cy="20" r="20" transform="translate(373.5 1008)" fill="#e6f7ff"/>
    <path id="Path_624" data-name="Path 624" d="M395.124,1028.541h-3.248a.542.542,0,0,0-.207.041.548.548,0,0,0-.175.118.542.542,0,0,0-.159.382v7.036a.542.542,0,0,0,.541.541h3.248a.541.541,0,0,0,.541-.541v-7.036a.541.541,0,0,0-.541-.541Z" fill="#1890ff"/>
    <path id="Path_625" data-name="Path 625" d="M388.629,1031.789h-3.248a.541.541,0,0,0-.541.541v3.789a.541.541,0,0,0,.541.541h3.248a.541.541,0,0,0,.541-.541v-3.789a.541.541,0,0,0-.541-.541Z" fill="#1890ff"/>
    <path id="Path_626" data-name="Path 626" d="M401.619,1025.294h-3.248a.541.541,0,0,0-.541.541v10.284a.539.539,0,0,0,.159.382.538.538,0,0,0,.383.158h3.248a.541.541,0,0,0,.541-.541v-10.284a.541.541,0,0,0-.541-.541Z" fill="#1890ff"/>
    <path id="Path_627" data-name="Path 627" d="M393.5,1025.84a.539.539,0,0,0,.383-.159l4.489-4.493v2.482h1.083v-3.789a.542.542,0,0,0-.543-.541h-3.788v1.083h2.482l-4.106,4.106-2.323-2.324a.541.541,0,0,0-.765,0l-2.707,2.706.765.765,2.324-2.323,2.324,2.324a.544.544,0,0,0,.382.163Z" fill="#1890ff"/>
  </g>
</svg>
