<svg xmlns="http://www.w3.org/2000/svg" width="40" height="40" viewBox="0 0 40 40">
  <g id="icon_2" data-name="icon 2" transform="translate(-696.5 -1008)">
    <circle id="Ellipse_3" data-name="Ellipse 3" cx="20" cy="20" r="20" transform="translate(696.5 1008)" fill="#fff1f0"/>
    <path id="Path_628" data-name="Path 628" d="M711.485,1027.438v-6.967h9.052v6.967l2.907-1.615-1.9-1.115v-4.743a.5.5,0,0,0-.5-.5H710.982a.5.5,0,0,0-.5.5v4.741l-1.92,1.109Z" fill="#f5222d"/>
    <path id="Path_629" data-name="Path 629" d="M716.255,1030.967a.5.5,0,0,1-.488,0l-7.8-4.334v8.42a.5.5,0,0,0,.5.5h15.089a.5.5,0,0,0,.5-.5v-8.42Z" fill="#f5222d"/>
    <path id="Path_630" data-name="Path 630" d="M714.5,1026.713l-1.864-1.864a.5.5,0,0,1,0-.711l1.864-1.864.711.711-1.508,1.509,1.509,1.509Z" fill="#f5222d"/>
    <path id="Path_631" data-name="Path 631" d="M717.522,1026.713l-.711-.711,1.509-1.509-1.512-1.505.711-.711,1.864,1.861a.5.5,0,0,1,0,.711Z" fill="#f5222d"/>
  </g>
</svg>
