<svg xmlns="http://www.w3.org/2000/svg" width="25.776" height="17.185" viewBox="0 0 25.776 17.185">
  <path id="Icon_why_qubly" data-name="Icon why_qubly" d="M671.5,836.592h0a14.353,14.353,0,0,1-12.732-7.94,1.447,1.447,0,0,1,0-1.306,14.213,14.213,0,0,1,25.465,0,1.447,1.447,0,0,1,0,1.306,14.358,14.358,0,0,1-12.732,7.94Zm0-15.034a6.443,6.443,0,1,0,2.465.49A6.448,6.448,0,0,0,671.5,821.559Zm.009,10.721a4.285,4.285,0,0,1-4.137-5.409,2.158,2.158,0,0,0,1.273.419c.053,0,.106,0,.158-.006a2.141,2.141,0,0,0,1.562-3.406,4.231,4.231,0,0,1,1.133-.17h.009a4.286,4.286,0,0,1,.135,8.57Z" transform="translate(-658.612 -819.408)" fill="#722ed1"/>
</svg>
