<svg xmlns="http://www.w3.org/2000/svg" width="16" height="16.007" viewBox="0 0 16 16.007">
  <g id="facebook-icon" transform="translate(-240.002 -4045)">
    <path id="Path_687" data-name="Path 687" d="M255.119,4061a.884.884,0,0,0,.883-.883v-14.234a.883.883,0,0,0-.883-.883H240.885a.883.883,0,0,0-.883.883v14.234a.884.884,0,0,0,.883.883Z" fill="#485a96"/>
    <path id="Path_688" data-name="Path 688" d="M251.042,4061v-6.193h2.08l.311-2.415h-2.391v-1.544c0-.7.194-1.176,1.2-1.176h1.279v-2.16a17.082,17.082,0,0,0-1.863-.1,2.91,2.91,0,0,0-3.106,3.192v1.781h-2.085v2.422h2.085v6.2h2.494Z" fill="#fff"/>
  </g>
</svg>
