<svg xmlns="http://www.w3.org/2000/svg" xmlns:xlink="http://www.w3.org/1999/xlink" width="16" height="16" viewBox="0 0 16 16">
  <defs>
    <radialGradient id="radial-gradient" cx="0.5" cy="0.5" r="1.305" gradientTransform="translate(0)" gradientUnits="objectBoundingBox">
      <stop offset="0" stop-color="#fa8f21"/>
      <stop offset="0.09" stop-color="#fa8f21"/>
      <stop offset="0.78" stop-color="#d82d7e"/>
      <stop offset="1" stop-color="#d82d7e"/>
    </radialGradient>
    <radialGradient id="radial-gradient-2" cx="0.5" cy="0.5" r="1.03" gradientTransform="translate(0)" gradientUnits="objectBoundingBox">
      <stop offset="0" stop-color="#8c3aaa" stop-opacity="0"/>
      <stop offset="0.64" stop-color="#8c3aaa" stop-opacity="0"/>
      <stop offset="1" stop-color="#8c3aaa"/>
    </radialGradient>
  </defs>
  <g id="instagram-2016" transform="translate(-300 -4045)">
    <path id="Path_692" data-name="Path 692" d="M308,4061c-2.208,0-2.46-.011-3.293-.048a5.886,5.886,0,0,1-1.947-.372,4.1,4.1,0,0,1-2.34-2.34,5.882,5.882,0,0,1-.372-1.94c-.039-.854-.048-1.138-.048-3.3s.009-2.446.048-3.3a5.883,5.883,0,0,1,.372-1.941,4.1,4.1,0,0,1,2.34-2.34,5.852,5.852,0,0,1,1.941-.372c.856-.039,1.14-.048,3.3-.048,2.135,0,2.423.009,3.3.048a5.865,5.865,0,0,1,1.942.372,4.1,4.1,0,0,1,2.339,2.34,5.853,5.853,0,0,1,.372,1.941c.039.855.048,1.139.048,3.3,0,2.2-.011,2.456-.046,3.3a5.843,5.843,0,0,1-.372,1.943,4.091,4.091,0,0,1-2.34,2.34,5.876,5.876,0,0,1-1.943.372C310.439,4060.991,310.154,4061,308,4061Zm-3.232-1.49c.844.039,1.1.047,3.233.047s2.39-.008,3.233-.047a4.419,4.419,0,0,0,1.486-.275,2.624,2.624,0,0,0,.92-.6,2.665,2.665,0,0,0,.6-.919,4.421,4.421,0,0,0,.275-1.486c.039-.843.047-1.1.047-3.233s-.008-2.39-.047-3.234a4.394,4.394,0,0,0-.275-1.486,2.492,2.492,0,0,0-.6-.919,2.46,2.46,0,0,0-.92-.6,4.416,4.416,0,0,0-1.486-.275c-.838-.039-1.09-.047-3.233-.047s-2.395.008-3.233.047a4.416,4.416,0,0,0-1.486.275,2.468,2.468,0,0,0-.919.6,2.493,2.493,0,0,0-.6.919,4.445,4.445,0,0,0-.275,1.486c-.039.843-.047,1.1-.047,3.234s.008,2.39.047,3.233a4.422,4.422,0,0,0,.275,1.486,2.673,2.673,0,0,0,1.52,1.52,4.416,4.416,0,0,0,1.486.275h0Zm3.233-2.4a4.1,4.1,0,1,1,.8-.078A4.1,4.1,0,0,1,308,4057.108Zm0-6.775a2.666,2.666,0,0,0-2.666,2.668,2.667,2.667,0,0,0,5.131,1.02,2.668,2.668,0,0,0-2.465-3.688Zm4.271-.644a.961.961,0,0,1-.962-.961.96.96,0,0,1,.96-.959.96.96,0,1,1,0,1.92Z" fill="url(#radial-gradient)"/>
    <path id="Path_693" data-name="Path 693" d="M308,4061c-2.208,0-2.46-.011-3.293-.048a5.886,5.886,0,0,1-1.947-.372,4.1,4.1,0,0,1-2.34-2.34,5.882,5.882,0,0,1-.372-1.94c-.039-.854-.048-1.138-.048-3.3s.009-2.446.048-3.3a5.883,5.883,0,0,1,.372-1.941,4.1,4.1,0,0,1,2.34-2.34,5.852,5.852,0,0,1,1.941-.372c.856-.039,1.14-.048,3.3-.048,2.135,0,2.423.009,3.3.048a5.865,5.865,0,0,1,1.942.372,4.1,4.1,0,0,1,2.339,2.34,5.853,5.853,0,0,1,.372,1.941c.039.855.048,1.139.048,3.3,0,2.2-.011,2.456-.046,3.3a5.843,5.843,0,0,1-.372,1.943,4.091,4.091,0,0,1-2.34,2.34,5.876,5.876,0,0,1-1.943.372C310.439,4060.991,310.154,4061,308,4061Zm-3.232-1.49c.844.039,1.1.047,3.233.047s2.39-.008,3.233-.047a4.419,4.419,0,0,0,1.486-.275,2.624,2.624,0,0,0,.92-.6,2.665,2.665,0,0,0,.6-.919,4.421,4.421,0,0,0,.275-1.486c.039-.843.047-1.1.047-3.233s-.008-2.39-.047-3.234a4.394,4.394,0,0,0-.275-1.486,2.492,2.492,0,0,0-.6-.919,2.46,2.46,0,0,0-.92-.6,4.416,4.416,0,0,0-1.486-.275c-.838-.039-1.09-.047-3.233-.047s-2.395.008-3.233.047a4.416,4.416,0,0,0-1.486.275,2.468,2.468,0,0,0-.919.6,2.493,2.493,0,0,0-.6.919,4.445,4.445,0,0,0-.275,1.486c-.039.843-.047,1.1-.047,3.234s.008,2.39.047,3.233a4.422,4.422,0,0,0,.275,1.486,2.673,2.673,0,0,0,1.52,1.52,4.416,4.416,0,0,0,1.486.275h0Zm3.233-2.4a4.1,4.1,0,1,1,.8-.078A4.1,4.1,0,0,1,308,4057.108Zm0-6.775a2.666,2.666,0,0,0-2.666,2.668,2.667,2.667,0,0,0,5.131,1.02,2.668,2.668,0,0,0-2.465-3.688Zm4.271-.644a.961.961,0,0,1-.962-.961.96.96,0,0,1,.96-.959.96.96,0,1,1,0,1.92Z" fill="url(#radial-gradient-2)"/>
  </g>
</svg>
