<svg xmlns="http://www.w3.org/2000/svg" width="16" height="16" viewBox="0 0 16 16">
  <g id="twitter-3" transform="translate(-268 -4045)">
    <circle id="Ellipse_19" data-name="Ellipse 19" cx="8" cy="8" r="8" transform="translate(268 4045)" fill="#2daae1"/>
    <path id="Path_691" data-name="Path 691" d="M281.1,4049.834a4.176,4.176,0,0,1-1.2.329,2.1,2.1,0,0,0,.92-1.157,4.182,4.182,0,0,1-1.328.508,2.092,2.092,0,0,0-3.618,1.431,2.12,2.12,0,0,0,.054.477,5.94,5.94,0,0,1-4.311-2.185,2.094,2.094,0,0,0,.647,2.792,2.085,2.085,0,0,1-.947-.261v.026a2.092,2.092,0,0,0,1.678,2.051,2.079,2.079,0,0,1-.551.073,2.113,2.113,0,0,1-.394-.037,2.093,2.093,0,0,0,1.954,1.452,4.212,4.212,0,0,1-3.1.866,5.948,5.948,0,0,0,9.157-5.011c0-.091,0-.181-.006-.271A4.263,4.263,0,0,0,281.1,4049.834Z" fill="#fff"/>
  </g>
</svg>
