<svg xmlns="http://www.w3.org/2000/svg" width="301.918" height="156.15" viewBox="0 0 301.918 156.15">
  <g id="Client_logos" data-name="Client logos" transform="translate(-243.001 -3415)">
    <path id="accenture-4" d="M342.754,3454.5c-.069,0-.142,0-.237-.006a4.706,4.706,0,0,1-3.465-1.311,5.531,5.531,0,0,1-1.375-4.017v-10.421h4.341v9.841c0,1.767.724,2.626,2.214,2.626h.088a2.63,2.63,0,0,0,2.618-2.87v-9.517h4.348v15.333h-4.269v-2.292a4.77,4.77,0,0,1-4.263,2.633Zm-92.112-.009h-.137a5.677,5.677,0,0,1-3.589-1.087,4.2,4.2,0,0,1-1.5-3.422v-.166a4.33,4.33,0,0,1,2.143-3.958,10.009,10.009,0,0,1,5.158-1.129H254.6v-.74c0-1.655-.75-2.46-2.294-2.46a1.988,1.988,0,0,0-.258-.016,2.038,2.038,0,0,0-2.034,1.983h-4.108a5.086,5.086,0,0,1,2.091-3.837,7.762,7.762,0,0,1,4.55-1.249,7.414,7.414,0,0,1,4.58,1.262,4.924,4.924,0,0,1,1.814,4.152v10.334h-4.18v-1.806a5.043,5.043,0,0,1-4.124,2.141Zm2.243-6.97a4.783,4.783,0,0,0-2.4.462,1.611,1.611,0,0,0-.8,1.506v.166c0,1.165.757,1.806,2.132,1.806a2.519,2.519,0,0,0,1.037-.1,2.539,2.539,0,0,0,.907-.512A2.5,2.5,0,0,0,254.6,3449v-1.474Zm48.052,6.969h0a7.447,7.447,0,0,1-5.391-1.958,7.887,7.887,0,0,1-2.07-5.83v-.327a8.333,8.333,0,0,1,2.123-5.955,7.867,7.867,0,0,1,10.23-.367,7.247,7.247,0,0,1,2.082,5.587v1.887H297.9c.153,2.557,1.229,3.854,3.2,3.854.072.005.145.008.217.008a2.767,2.767,0,0,0,2.651-1.975h4.02a5.975,5.975,0,0,1-2.2,3.612A7.84,7.84,0,0,1,300.937,3454.49Zm-.081-13.125c-1.708.108-2.674,1.181-2.953,3.281h5.821c-.076-2.177-1.04-3.281-2.868-3.281Zm-16.074,13.125h0a7.269,7.269,0,0,1-5.29-1.969,8.127,8.127,0,0,1-2.091-5.905v-.241a8.3,8.3,0,0,1,2.153-5.985,7.874,7.874,0,0,1,9.789-.645,6.008,6.008,0,0,1,2.165,4.416h-4.1c-.267-1.587-1.168-2.461-2.541-2.461-1.95,0-3.114,1.685-3.114,4.508v.493c0,2.991,1.048,4.508,3.114,4.508a2.868,2.868,0,0,0,2.786-2.787h3.934a6.433,6.433,0,0,1-1.926,4.355A6.966,6.966,0,0,1,284.782,3454.49Zm-16.075,0h0a7.269,7.269,0,0,1-5.29-1.969,8.128,8.128,0,0,1-2.091-5.905v-.241a8.31,8.31,0,0,1,2.153-5.99,7.138,7.138,0,0,1,5.228-2.05,7.238,7.238,0,0,1,4.561,1.4,6.008,6.008,0,0,1,2.165,4.417h-4.1c-.266-1.586-1.169-2.46-2.542-2.46-1.95,0-3.114,1.685-3.114,4.508v.492c0,2.991,1.048,4.508,3.114,4.508a2.868,2.868,0,0,0,2.787-2.787h3.94a6.454,6.454,0,0,1-1.931,4.36A6.968,6.968,0,0,1,268.707,3454.49Zm103.658,0a7.442,7.442,0,0,1-5.388-1.959,7.989,7.989,0,0,1-2.069-5.828v-.328a8.331,8.331,0,0,1,2.123-5.955,7.868,7.868,0,0,1,10.23-.367,7.246,7.246,0,0,1,2.082,5.587v1.887H369.329c.153,2.557,1.229,3.854,3.2,3.854.07.005.142.008.214.008a2.769,2.769,0,0,0,2.654-1.976h4.019C378.692,3452.589,376.055,3454.486,372.365,3454.487Zm-.162-13.122c-1.64.11-2.606,1.183-2.953,3.281h5.82C374.995,3442.469,374.03,3441.365,372.2,3441.365Zm-39.3,13.044-.138,0c-3.316,0-4.926-1.529-4.926-4.674v-7.788h-1.8v-3.2h1.805v-2.871l4.341-1.8v4.674h2.953v3.2H332.18v7.3c0,1.158.51,1.721,1.56,1.721.05,0,.1,0,.149,0a3.621,3.621,0,0,0,1.325-.25v3.361A8.321,8.321,0,0,1,332.9,3454.409Zm26.019-.164h-4.346l0-15.5h4.349v2.868a4.679,4.679,0,0,1,1.832-2.3,4.632,4.632,0,0,1,2.528-.749c.1,0,.21,0,.315.011v4.265h-.01a6.113,6.113,0,0,0-3.434.767,2.981,2.981,0,0,0-1.23,2.679v7.952Zm-34.691-.083h-4.347v-9.675c0-1.792-.729-2.626-2.294-2.626-.045,0-.091,0-.136,0a2.586,2.586,0,0,0-2.453,1.765,2.615,2.615,0,0,0-.118,1.107v9.427h-4.347v-15.412h4.347v2.3a4.941,4.941,0,0,1,4.37-2.635c.1,0,.2,0,.3.009a4.384,4.384,0,0,1,3.382,1.322,5.87,5.87,0,0,1,1.292,4.093v10.327Zm-.818-21.076h0v-4.02l7.712-2.867-7.712-3.034v-4.02l13.2,5.328v3.281l-13.2,5.333Z" fill="#8989a2"/>
    <g id="react">
      <path id="Path_684" data-name="Path 684" d="M533.643,3433.293q-1.013-.347-2.042-.643.171-.693.316-1.393c1.546-7.5.535-13.549-2.916-15.539-3.309-1.909-8.721.081-14.187,4.838q-.808.7-1.579,1.449-.517-.5-1.051-.971c-5.729-5.087-11.471-7.23-14.919-5.234-3.306,1.914-4.285,7.6-2.894,14.708q.208,1.056.469,2.1c-.812.231-1.6.477-2.348.738-6.716,2.341-11.005,6.011-11.005,9.818,0,3.932,4.6,7.875,11.6,10.266q.851.289,1.715.536-.281,1.125-.5,2.265c-1.327,6.988-.291,12.536,3.007,14.438,3.406,1.964,9.122-.055,14.688-4.92q.66-.577,1.324-1.22.835.806,1.715,1.565c5.391,4.639,10.716,6.513,14.011,4.606,3.4-1.97,4.508-7.93,3.072-15.182q-.164-.831-.38-1.7.6-.178,1.18-.368c7.272-2.409,12-6.3,12-10.289,0-3.82-4.427-7.515-11.279-9.873Z" fill="#8989a2"/>
      <path id="Path_685" data-name="Path 685" d="M516.8,3464.042q-.794-.683-1.6-1.454a63.587,63.587,0,0,0,5.317-6.752,63.2,63.2,0,0,0,8.591-1.324q.194.783.344,1.534h.01a22.943,22.943,0,0,1,.3,8.373c-.378,2.037-1.138,3.394-2.077,3.938a3.212,3.212,0,0,1-1.622.38C523.793,3468.735,520.4,3467.139,516.8,3464.042Zm-18.135,4.284c-2-1.154-2.833-5.61-1.7-11.585q.2-1.06.463-2.106a63.85,63.85,0,0,0,8.549,1.238,65.964,65.964,0,0,0,5.445,6.728q-.591.571-1.209,1.113a22.954,22.954,0,0,1-7.1,4.446h0a8.5,8.5,0,0,1-2.773.548A3.344,3.344,0,0,1,498.663,3468.326Zm14.637-7.68c-1.284-1.386-2.565-2.919-3.817-4.568q1.822.071,3.711.072,1.94,0,3.829-.085a57.571,57.571,0,0,1-3.714,4.583Zm-5.839-7.39q-1.643-2.4-3.1-4.918-1.45-2.5-2.706-5.111,1.253-2.607,2.7-5.114t3.076-4.9c1.887-.142,3.821-.216,5.776-.216s3.9.075,5.787.218q1.613,2.385,3.055,4.881t2.735,5.09q-1.27,2.616-2.726,5.135l0,.007q-1.44,2.5-3.043,4.909c-1.882.134-3.827.2-5.81.2S509.31,3453.376,507.461,3453.256Zm-3.461-.3a57.534,57.534,0,0,1-5.846-.94c.56-1.809,1.25-3.688,2.056-5.6q.86,1.663,1.8,3.282.956,1.652,1.992,3.258Zm20.4-3.276q.957-1.659,1.84-3.361a57.376,57.376,0,0,1,2.13,5.58,57.521,57.521,0,0,1-5.918,1.009Q523.462,3451.315,524.4,3449.681Zm-30.442,1.186v0a22.963,22.963,0,0,1-7.4-3.93c-1.572-1.35-2.362-2.688-2.362-3.774,0-2.31,3.443-5.256,9.188-7.259q1.08-.375,2.182-.688a65.1,65.1,0,0,0,3.092,8.013,65.881,65.881,0,0,0-3.13,8.125Q494.739,3451.132,493.961,3450.867Zm33.826-7.688a63.683,63.683,0,0,0,3.087-7.921c.649.187,1.279.385,1.885.6,5.871,2.021,9.452,5.009,9.452,7.311,0,2.453-3.867,5.637-10.147,7.718v0c-.346.116-.7.227-1.065.334A63.667,63.667,0,0,0,527.788,3443.18Zm-3.4-6.433h0q-.929-1.607-1.929-3.172c2.024.254,3.964.6,5.784,1.01a57.621,57.621,0,0,1-2.03,5.462Q525.338,3438.378,524.391,3436.746Zm-26.192-2.188c1.81-.405,3.74-.736,5.751-.987q-1.01,1.575-1.945,3.2l-.005-.008q-.934,1.619-1.791,3.28C499.423,3438.172,498.748,3436.332,498.2,3434.559Zm22.3-3.929a63.91,63.91,0,0,0-5.362-6.691q.713-.687,1.459-1.338c4.683-4.076,9.059-5.685,11.055-4.535h0c2.124,1.225,2.95,6.165,1.616,12.644q-.131.633-.285,1.261A64.953,64.953,0,0,0,520.5,3430.63Zm-23.462-.642h0c-1.192-6.093-.4-10.689,1.592-11.842,2.122-1.229,6.815.524,11.761,4.915q.474.423.952.879a64.861,64.861,0,0,0-5.4,6.687,66.192,66.192,0,0,0-8.465,1.316Q497.226,3430.971,497.033,3429.988Zm12.434.4a58.441,58.441,0,0,1,3.766-4.5l0-.007a58.19,58.19,0,0,1,3.733,4.507Q513.22,3430.206,509.467,3430.383Z" fill="#fff"/>
      <path id="Path_686" data-name="Path 686" d="M513.2,3437.5a5.665,5.665,0,1,1-4.006,1.659A5.666,5.666,0,0,1,513.2,3437.5Z" fill="#8989a2"/>
    </g>
    <path id="airbnb" d="M272.132,3570.926h-.085a9.364,9.364,0,0,1-1.06-.082,10.719,10.719,0,0,1-4.073-1.385,21.374,21.374,0,0,1-5.053-4.237,20.605,20.605,0,0,1-5.044,4.237,10.728,10.728,0,0,1-4.075,1.385,9.326,9.326,0,0,1-1.06.082h-.06a8.308,8.308,0,0,1-3.24-.653,8.659,8.659,0,0,1-5.3-6.764,9.174,9.174,0,0,1,.489-4.4c.207-.536.413-1.03.611-1.467.152-.343.31-.689.437-.967l.006-.014c.174-.382.339-.743.493-1.1l.041-.081c2.579-5.621,5.523-11.644,9-18.416l.122-.246c.332-.631.661-1.275.977-1.914a13.916,13.916,0,0,1,1.467-2.241,6.832,6.832,0,0,1,5.215-2.445,6.581,6.581,0,0,1,5.18,2.526,11.739,11.739,0,0,1,1.467,2.241c.312.632.641,1.276.976,1.914l.122.246c3.074,5.923,6.1,12.119,9,18.416l.04.041c.159.365.329.737.509,1.131l0,.005c.132.288.281.615.426.942s.3.707.45,1.072l0,.006c.053.131.106.261.158.389a7.7,7.7,0,0,1,.371,4.36,8.646,8.646,0,0,1-5.3,6.764A8.186,8.186,0,0,1,272.132,3570.926Zm-10.15-38.015a4.239,4.239,0,0,0-1.8.4,4.307,4.307,0,0,0-1.463,1.113,8.94,8.94,0,0,0-1.141,1.793c-.17.319-.343.653-.5.948l-.005.01c-.157.3-.319.617-.478.915l-.122.245c-2.972,5.712-5.987,11.867-8.963,18.293l-.041.081-.025.053c-.311.663-.633,1.349-.912,1.986-.058.137-.115.267-.171.394l-.006.014a7.871,7.871,0,0,0-.353.892,6.771,6.771,0,0,0-.366,3.179A6.053,6.053,0,0,0,249.33,3568a6.539,6.539,0,0,0,3.1.408,7.975,7.975,0,0,0,3.1-1.059,18.231,18.231,0,0,0,4.645-3.954c-2.661-3.315-4.32-6.358-4.93-9.044a8.422,8.422,0,0,1-.2-3.464,6.661,6.661,0,0,1,1.1-2.771,6.97,6.97,0,0,1,5.656-2.894h.233a6.867,6.867,0,0,1,5.6,2.895,6.638,6.638,0,0,1,1.1,2.771,10.164,10.164,0,0,1-.2,3.464,23.128,23.128,0,0,1-4.93,9,19,19,0,0,0,4.645,3.953,7.987,7.987,0,0,0,3.1,1.059,6.173,6.173,0,0,0,3.1-.408,6.053,6.053,0,0,0,3.707-4.768,6.91,6.91,0,0,0-.283-3.139,8.007,8.007,0,0,0-.328-.828l0-.01c-.065-.148-.132-.3-.2-.463-.166-.332-.329-.7-.472-1.027s-.3-.687-.465-1.011v-.042c-2.848-6.144-5.85-12.313-8.923-18.335l-.122-.245c-.164-.308-.331-.631-.493-.943l-.012-.023c-.155-.3-.316-.612-.474-.907a8.994,8.994,0,0,0-1.141-1.793,4.278,4.278,0,0,0-3.26-1.508Zm-.158,14.788a4.327,4.327,0,0,0-3.507,1.793,3.967,3.967,0,0,0-.653,1.713,6.543,6.543,0,0,0,.122,2.486,20.218,20.218,0,0,0,4.115,7.578,20.647,20.647,0,0,0,4.117-7.578,6.543,6.543,0,0,0,.122-2.486,3.99,3.99,0,0,0-.652-1.713,4.172,4.172,0,0,0-3.43-1.8l-.156,0Zm35.275,13.247c-.082,0-.163,0-.24-.005a8.069,8.069,0,0,1,0-16.134c.073,0,.144,0,.217,0a5.088,5.088,0,0,1,3.735,1.634v-.652a.584.584,0,0,1,.571-.572h3.3v15.32H301.37a.537.537,0,0,1-.208-.04.579.579,0,0,1-.187-.123.553.553,0,0,1-.164-.407v-.693a4.94,4.94,0,0,1-3.712,1.677Zm.205-12.476a4.415,4.415,0,0,0-1.543.277,4.406,4.406,0,0,0-2.51,5.862,4.407,4.407,0,0,0,4.049,2.671c.068,0,.139,0,.211-.005h.022a4.047,4.047,0,0,0,3.278-1.671v-5.458a4.16,4.16,0,0,0-3.3-1.671C297.442,3548.472,297.374,3548.471,297.3,3548.471Zm34.6,12.474a5.014,5.014,0,0,1-1.966-.4,5.07,5.07,0,0,1-1.789-1.277v.693a.584.584,0,0,1-.571.571h-3.3v-22.7h3.91v8.6a5.135,5.135,0,0,1,1.8-1.251,5.065,5.065,0,0,1,1.939-.385c.059,0,.126,0,.217,0a8.069,8.069,0,0,1-.04,16.133C332.046,3560.943,331.982,3560.945,331.906,3560.945Zm-.415-3.712c.066,0,.138.005.212.005a4.405,4.405,0,0,0,1.536-8.533,4.408,4.408,0,0,0-1.541-.277c-.059,0-.125,0-.208,0a4.425,4.425,0,0,0-3.3,1.671v5.461a3.989,3.989,0,0,0,3.249,1.671h.051Zm33.821,3.711a5.009,5.009,0,0,1-1.961-.4,5.076,5.076,0,0,1-1.79-1.276v.691a.583.583,0,0,1-.57.572h-3.3v-22.7H361.6v8.6a5.133,5.133,0,0,1,1.8-1.25,5.08,5.08,0,0,1,1.94-.384c.081,0,.152,0,.217,0a8.069,8.069,0,0,1-.042,16.134C365.463,3560.943,365.4,3560.944,365.312,3560.944Zm-.409-12.512a4.426,4.426,0,0,0-3.3,1.671v5.46a3.988,3.988,0,0,0,3.245,1.671h.056a4.44,4.44,0,0,0,3.111-1.291,4.4,4.4,0,0,0,0-6.223A4.434,4.434,0,0,0,364.9,3548.432Zm-9.249,12.145h-3.912V3551.9c0-2.551-.845-3.545-3.014-3.545a4.385,4.385,0,0,0-3.179,1.508v10.675h-3.91v-15.321h3.1a.577.577,0,0,1,.4.17.586.586,0,0,1,.171.4v.652a5.613,5.613,0,0,1,3.957-1.634c.059,0,.117,0,.176,0h.021c.066,0,.137,0,.216,0a6.356,6.356,0,0,1,4.064,1.471c1.378,1.135,1.914,2.586,1.914,5.175l0,9.127Zm-38.263,0h-3.911v-15.36h3.3a.581.581,0,0,1,.571.571v.652a5.336,5.336,0,0,1,3.549-1.63l.213,0a6.239,6.239,0,0,1,1.58.2v3.626a6.315,6.315,0,0,0-1.8-.26,4.543,4.543,0,0,0-3.5,1.483v10.715Zm-6.352-.039h-3.911v-15.321h3.911v15.319Zm-1.957-17.437a2.649,2.649,0,0,1,0-5.3h.007a2.63,2.63,0,0,1,1.007.2,2.6,2.6,0,0,1,.86.574,2.652,2.652,0,0,1-1.875,4.524Z" fill="#8989a2"/>
    <path id="sky-4" d="M527.585,3571.143H524.37c-.433,0-.751-.208-.751-.642a1.754,1.754,0,0,1,.216-.646l3.536-7.482-8.012-11.841-4.053,4.366,5.344,7.912a1.189,1.189,0,0,1,.316.715c0,.456-.316.674-.859.674h-3.626a1.328,1.328,0,0,1-1.176-.748l-6.079-8.866,6.783-7.278a2.026,2.026,0,0,1,1.7-.722h3.85a1.723,1.723,0,0,1,1.757.858l6.367,10.032,4.568-10.137a1.108,1.108,0,0,1,1.177-.755h3.24c.432,0,.749.212.749.641a1.638,1.638,0,0,1-.211.648l-10.445,22.52a1.1,1.1,0,0,1-1.047.76A1.143,1.143,0,0,1,527.585,3571.143ZM507.09,3564.2h-2.664a.686.686,0,0,1-.553-.183.689.689,0,0,1-.211-.543v-22.869a1.635,1.635,0,0,1,.464-1.353,1.636,1.636,0,0,1,1.35-.471h2.669a.672.672,0,0,1,.3.028.679.679,0,0,1,.42.4.7.7,0,0,1,.042.294v22.869a1.636,1.636,0,0,1-1.625,1.837A1.593,1.593,0,0,1,507.09,3564.2Zm-20.93-.046a.679.679,0,0,1-.426-.718v-1.69a1.631,1.631,0,0,1,1.824-1.813h8.1c.957,0,1.286-.333,1.286-.745,0-.544-.33-.849-1.392-1.084l-5.224-1.168c-3.274-.728-4.91-2.351-4.91-5.015,0-2.991,2.126-5.34,6.183-5.342h9.1a.679.679,0,0,1,.724.761v1.693a1.632,1.632,0,0,1-.469,1.348,1.621,1.621,0,0,1-.622.388,1.642,1.642,0,0,1-.729.076h-7.772c-.96,0-1.292.333-1.292.75,0,.537.336.838,1.4,1.078l5.224,1.17c3.252.723,4.909,2.347,4.909,5.223,0,2.784-1.931,5.134-6.731,5.134h-8.933A.672.672,0,0,1,486.159,3564.157Z" fill="#8989a2"/>
  </g>
</svg>
