<svg xmlns="http://www.w3.org/2000/svg" xmlns:xlink="http://www.w3.org/1999/xlink" width="160" height="40" viewBox="0 0 160 40">
  <defs>
    <clipPath id="clip-path">
      <rect id="Rectangle_3" data-name="Rectangle 3" width="160" height="40" transform="translate(-2109 1432)" fill="#fff" stroke="#707070" stroke-width="1"/>
    </clipPath>
    <linearGradient id="linear-gradient" y1="0.481" x2="1" y2="0.504" gradientUnits="objectBoundingBox">
      <stop offset="0" stop-color="#e847a3"/>
      <stop offset="0.257" stop-color="#da5af7"/>
      <stop offset="0.338" stop-color="#dd57f6"/>
      <stop offset="0.564" stop-color="#b848f4"/>
      <stop offset="1" stop-color="#8842f6"/>
    </linearGradient>
    <linearGradient id="linear-gradient-2" x1="0.366" y1="0.417" x2="0.333" y2="1" gradientUnits="objectBoundingBox">
      <stop offset="0" stop-color="#e03440" stop-opacity="0.2"/>
      <stop offset="0.28" stop-color="#e03440" stop-opacity="0.62"/>
      <stop offset="1" stop-color="#e03440"/>
    </linearGradient>
  </defs>
  <g id="Mask_Group_1" data-name="Mask Group 1" transform="translate(2109 -1432)" clip-path="url(#clip-path)">
    <g id="angular" transform="translate(-2109 1432)">
      <path id="Path_1" data-name="Path 1" d="M36.259,6.571,34.95,27.685,22.431,0Zm-8.67,27.3L18.13,39.415,8.671,33.873l1.924-4.788h15.07ZM18.13,10.509l4.956,12.375H13.173ZM1.3,27.685,0,6.571,13.827,0Zm147.57,4.378V12.014h4.462v3.341h.2a5.018,5.018,0,0,1,1.837-2.682,4.941,4.941,0,0,1,2.98-.946q.382,0,.858.033a6.137,6.137,0,0,1,.794.1V16.2a4.986,4.986,0,0,0-.922-.189,9.109,9.109,0,0,0-1.214-.085,4.564,4.564,0,0,0-2.256.555,4.081,4.081,0,0,0-1.57,1.534,4.4,4.4,0,0,0-.572,2.258V32.064Zm-9.349-20.31a11.878,11.878,0,0,1,2.809.339,7.879,7.879,0,0,1,2.555,1.116,5.7,5.7,0,0,1,1.863,2.108,7.059,7.059,0,0,1,.705,3.328V32.064h-4.423V29.31h-.152a5.721,5.721,0,0,1-1.176,1.56,5.6,5.6,0,0,1-1.894,1.162,7.407,7.407,0,0,1-2.663.437,7.851,7.851,0,0,1-3.337-.685,5.4,5.4,0,0,1-2.338-2.03,6.043,6.043,0,0,1-.858-3.315,5.78,5.78,0,0,1,.61-2.806,4.8,4.8,0,0,1,1.665-1.775,8.4,8.4,0,0,1,2.383-1.011,19.26,19.26,0,0,1,2.752-.5l.573-.062.663-.075q.845-.1,1.473-.185l.074-.01a3.954,3.954,0,0,0,1.557-.47,1.108,1.108,0,0,0,.489-1v-.078A3,3,0,0,0,142,16.178a3.427,3.427,0,0,0-2.453-.809,4.286,4.286,0,0,0-2.676.757,3.737,3.737,0,0,0-1.328,1.788l-4.3-.627a7.137,7.137,0,0,1,1.678-3.061,7.371,7.371,0,0,1,2.86-1.854A10.78,10.78,0,0,1,139.517,11.753Zm3.343,10.756a2.134,2.134,0,0,1-.731.339,10.587,10.587,0,0,1-1.15.274q-.509.094-1.009.171l-.344.051-.986.143a7.877,7.877,0,0,0-1.843.47,3.09,3.09,0,0,0-1.284.907,2.3,2.3,0,0,0-.47,1.495,2.27,2.27,0,0,0,.928,1.971,3.958,3.958,0,0,0,2.364.666,4.851,4.851,0,0,0,2.4-.568,4.09,4.09,0,0,0,1.57-1.508,3.969,3.969,0,0,0,.553-2.049Zm-17.624,9.555h4.6V5.331h-4.6Zm-6.108-8.432V12.014h4.6V32.064h-4.461V28.5h-.2a6.015,6.015,0,0,1-2.167,2.754,6.23,6.23,0,0,1-3.7,1.07,6.455,6.455,0,0,1-3.388-.881,5.955,5.955,0,0,1-2.294-2.571,9.247,9.247,0,0,1-.826-4.092V12.014h4.6V24.049a4.34,4.34,0,0,0,1.017,3.028,3.43,3.43,0,0,0,2.669,1.122,4.133,4.133,0,0,0,1.97-.509,4.086,4.086,0,0,0,1.57-1.521,4.748,4.748,0,0,0,.616-2.447ZM94.78,11.753a5.971,5.971,0,0,1,2.828.594,5.606,5.606,0,0,1,1.773,1.423,8.041,8.041,0,0,1,1,1.56h.254V12.014h4.537V32.39a6.79,6.79,0,0,1-4.461,6.774,12.49,12.49,0,0,1-4.7.835,11.856,11.856,0,0,1-4.258-.685,7.6,7.6,0,0,1-2.86-1.834,6.365,6.365,0,0,1-1.5-2.546L91.539,33.9a4.776,4.776,0,0,0,.813,1.168,4.094,4.094,0,0,0,1.442.966,5.919,5.919,0,0,0,2.294.385,5.216,5.216,0,0,0,3.241-.972,3.749,3.749,0,0,0,1.284-3.191v-3.8h-.229a6.816,6.816,0,0,1-1.036,1.5,5.427,5.427,0,0,1-1.792,1.292,6.56,6.56,0,0,1-2.79.522,7.787,7.787,0,0,1-4.073-1.09,7.587,7.587,0,0,1-2.9-3.263,12.261,12.261,0,0,1-1.074-5.45,13.028,13.028,0,0,1,1.074-5.58,8.09,8.09,0,0,1,2.9-3.459A7.366,7.366,0,0,1,94.78,11.753Zm1.271,3.877a3.984,3.984,0,0,0-2.567.822,4.985,4.985,0,0,0-1.55,2.252,9.419,9.419,0,0,0-.521,3.244,8.967,8.967,0,0,0,.527,3.218A4.639,4.639,0,0,0,93.5,27.306a4.623,4.623,0,0,0,5.04.033,4.488,4.488,0,0,0,1.563-2.1,9.067,9.067,0,0,0,.534-3.29,9.529,9.529,0,0,0-.527-3.315,4.838,4.838,0,0,0-1.551-2.213A3.988,3.988,0,0,0,96.051,15.63ZM73.342,20.316V32.064h-4.6V12.014h4.4v3.407h.228a5.686,5.686,0,0,1,2.154-2.676,6.444,6.444,0,0,1,3.667-.992,6.821,6.821,0,0,1,3.527.888,5.973,5.973,0,0,1,2.338,2.571,8.956,8.956,0,0,1,.82,3.969V32.064h-4.6V20.029a4.567,4.567,0,0,0-1.011-3.146,3.542,3.542,0,0,0-2.79-1.136,4.194,4.194,0,0,0-2.142.542,3.747,3.747,0,0,0-1.462,1.56,5.244,5.244,0,0,0-.527,2.371ZM59.2,5.331l9.177,26.732H63.343l-2.157-6.592H51.4l-2.152,6.592H44.214L53.378,5.331Zm-2.809,5.482h-.2L52.67,21.582h7.243Z" fill="url(#linear-gradient)"/>
      <path id="Path_2" data-name="Path 2" d="M27.588,34.073,18.13,39.648,8.671,34.073l1.924-4.816h15.07Zm-9.459-23.5,4.956,12.448H13.173ZM1.3,27.849,0,6.61,13.827,0Z" transform="translate(0)" fill="url(#linear-gradient-2)"/>
    </g>
  </g>
</svg>
