<svg xmlns="http://www.w3.org/2000/svg" xmlns:xlink="http://www.w3.org/1999/xlink" width="160" height="40" viewBox="0 0 160 40">
  <defs>
    <clipPath id="clip-path">
      <rect id="Rectangle_2" data-name="Rectangle 2" width="160" height="40" transform="translate(-2145 1921)" fill="#fff" stroke="#707070" stroke-width="1"/>
    </clipPath>
  </defs>
  <g id="Mask_Group_2" data-name="Mask Group 2" transform="translate(2145 -1921)" clip-path="url(#clip-path)">
    <g id="protonet" transform="translate(-2145 1921)">
      <path id="Path_3" data-name="Path 3" d="M.349,30.278A.838.838,0,0,1,0,29.635V10.365a.838.838,0,0,1,.349-.644L16.193.089a.731.731,0,0,1,.7,0L32.734,9.722a.837.837,0,0,1,.349.643v19.27a.839.839,0,0,1-.349.643L16.891,39.912a.731.731,0,0,1-.7,0Zm47.615-18V20.1H51.1c2.273,0,3.284-.988,3.284-2.605V14.888c0-1.617-1.011-2.605-3.284-2.605Zm0,10.3v6.978c0,.419-.1.6-.455.6H45.968c-.328,0-.455-.18-.455-.6V10.4c0-.419.126-.6.455-.6H51.1c4.345,0,5.735,2.156,5.735,4.612v3.564c0,2.455-1.389,4.612-5.735,4.612Zm14.569-10.3V19.62h3.132c2.274,0,3.285-.958,3.285-2.605V14.888c0-1.617-1.011-2.605-3.285-2.605Zm0,9.822v7.457c0,.419-.1.6-.455.6H60.538c-.328,0-.455-.18-.455-.6V10.4c0-.419.126-.6.455-.6h5.128c4.346,0,5.735,2.156,5.735,4.612v3.114a4.079,4.079,0,0,1-2.956,4.193l3.032,7.846c.127.359-.1.6-.455.6H69.507c-.354,0-.4-.239-.556-.6L66.1,22.105Zm22.149-7.457c0-1.617-1.066-2.605-3.466-2.605-2.373,0-3.44.988-3.44,2.605V25.309c0,1.617,1.067,2.605,3.44,2.605,2.4,0,3.466-.988,3.466-2.605Zm-9.519-.479c0-2.456,1.493-4.612,6.053-4.612,4.586,0,6.08,2.156,6.08,4.612V25.789c0,2.456-1.494,4.612-6.08,4.612-4.56,0-6.053-2.156-6.053-4.612ZM101.376,9.8c.347,0,.507.15.507.569v1.348c0,.419-.16.569-.507.569H97.11V29.562c0,.419-.133.6-.48.6H94.976c-.347,0-.48-.18-.48-.6V12.283H90.23c-.373,0-.507-.15-.507-.569V10.366c0-.419.133-.569.507-.569ZM113.8,14.649c0-1.617-1.067-2.605-3.467-2.605-2.373,0-3.44.988-3.44,2.605V25.309c0,1.617,1.067,2.605,3.44,2.605,2.4,0,3.467-.988,3.467-2.605Zm-9.52-.479c0-2.456,1.493-4.612,6.053-4.612,4.587,0,6.08,2.156,6.08,4.612V25.789c0,2.456-1.493,4.612-6.08,4.612-4.56,0-6.053-2.156-6.053-4.612Zm27.568,15.422c0,.389-.1.569-.455.569h-1.39a.443.443,0,0,1-.454-.27l-5.938-12.338a19.774,19.774,0,0,1-.91-2.156V29.592c0,.389-.126.569-.455.569h-1.415c-.328,0-.455-.18-.455-.569V10.366c0-.389.126-.569.455-.569h1.415a.417.417,0,0,1,.4.24l6.089,12.608c.354.719.783,1.916.783,1.916V10.366c0-.389.151-.569.48-.569h1.39c.354,0,.455.18.455.569Zm4.344.569c-.328,0-.454-.18-.454-.6V10.4c0-.419.126-.6.454-.6h8.641c.328,0,.48.15.48.569v1.348c0,.419-.152.569-.48.569h-6.644v6.049h6.19c.354,0,.505.15.505.569v1.288c0,.389-.152.569-.505.569h-6.19v6.918h6.923c.328,0,.48.12.48.539v1.378c0,.419-.152.569-.48.569ZM159.52,9.8c.329,0,.48.15.48.569v1.348c0,.419-.152.569-.48.569h-4.042V29.562c0,.419-.126.6-.455.6h-1.566c-.328,0-.455-.18-.455-.6V12.283h-4.042c-.354,0-.48-.15-.48-.569V10.366c0-.419.127-.569.48-.569Z" transform="translate(0 0)" fill="#e15b29"/>
    </g>
  </g>
</svg>
