<svg xmlns="http://www.w3.org/2000/svg" xmlns:xlink="http://www.w3.org/1999/xlink" width="160" height="40" viewBox="0 0 160 40">
  <defs>
    <clipPath id="clip-path">
      <rect id="Rectangle_1" data-name="Rectangle 1" width="160" height="40" transform="translate(-3451 1391)" fill="#fff" stroke="#707070" stroke-width="1"/>
    </clipPath>
  </defs>
  <g id="Mask_Group_4" data-name="Mask Group 4" transform="translate(3451 -1391)" clip-path="url(#clip-path)">
    <g id="spring" transform="translate(-3451 1391)">
      <path id="Path_6" data-name="Path 6" d="M342.625,24.17c4.893,0,9.7,3.991,9.7,11.192v.092c0,7.156-4.76,11.192-9.7,11.192a8.443,8.443,0,0,1-7.117-3.807v7.614a2.432,2.432,0,0,1-2.326,2.476h-.077a2.411,2.411,0,0,1-2.357-2.431V26.739a2.414,2.414,0,0,1,2.313-2.477h.044a2.427,2.427,0,0,1,2.4,2.4v1.547A8.339,8.339,0,0,1,342.625,24.17Zm63.344-.046a8.3,8.3,0,0,1,7.043,3.93l.074.107V26.614a2.429,2.429,0,0,1,2.323-2.4h.122a2.433,2.433,0,0,1,2.359,2.444V41.784c0,3.624-.934,6.33-2.669,8.119-1.868,1.972-4.8,2.89-8.585,2.89a17.85,17.85,0,0,1-8.1-1.927,2.082,2.082,0,0,1-1.335-1.972,2.052,2.052,0,0,1,2.046-2.018,1.76,1.76,0,0,1,.845.184,12.66,12.66,0,0,0,6.406,1.7c4.048,0,6.361-2.018,6.583-5.917a8.52,8.52,0,0,1-7.117,3.761c-4.888,0-9.6-3.956-9.7-10.978l0-.214v-.092C396.271,28.115,401.076,24.124,405.969,24.124Zm-18.995.138c4.715,0,7.429,3.257,7.429,8.256v11.6a2.337,2.337,0,0,1-2.268,2.431h-.089a2.408,2.408,0,0,1-2.4-2.385V34.032c0-3.348-1.6-5.275-4.493-5.275-2.758,0-4.715,2.018-4.715,5.367V44.169a2.4,2.4,0,1,1-4.8,0l.044-17.385a2.415,2.415,0,0,1,2.313-2.477h.045a2.427,2.427,0,0,1,2.4,2.4v1.088A7.4,7.4,0,0,1,386.974,24.262Zm-66.191-.046a14.411,14.411,0,0,1,6.583,1.743,2.078,2.078,0,0,1,1.157,1.881,2.006,2.006,0,0,1-1.957,2.018h-.044a2.333,2.333,0,0,1-.934-.229,10.879,10.879,0,0,0-4.893-1.468c-1.868,0-2.936.917-2.936,2.11v.092c0,1.605,2.269,2.248,4.715,3.073l.2.064.2.065q.353.115.707.242l.2.073c2.657.982,5.183,2.532,5.183,5.84v.092c0,4.541-3.425,6.789-7.74,6.789a14.359,14.359,0,0,1-8.007-2.569,1.878,1.878,0,0,1-.89-1.7,1.969,1.969,0,0,1,1.913-2.018h.044a2.017,2.017,0,0,1,1.023.275,11.042,11.042,0,0,0,6.005,2.064c2.046,0,3.247-.917,3.247-2.339v-.092c0-1.7-2.224-2.248-4.671-3.027-.256-.076-.514-.155-.773-.238l-.194-.063c-2.787-.914-5.571-2.33-5.571-6.029v-.092C313.355,26.693,316.647,24.216,320.783,24.216Zm50.043.092a2.427,2.427,0,0,1,2.4,2.4V44.169a2.38,2.38,0,1,1-4.76,0V26.785a2.415,2.415,0,0,1,2.313-2.477Zm-4.27,2.018v.367a2.359,2.359,0,0,1-1.913,2.385c-3.425.6-5.738,3.67-5.738,7.935v7.11a2.38,2.38,0,0,1-4.758.124v-.124l.045-17.384a2.414,2.414,0,0,1,2.313-2.477h.044a2.427,2.427,0,0,1,2.4,2.4v1.272c.222-1.835,3.158-3.67,5.249-3.67A2.213,2.213,0,0,1,366.557,26.326Zm-25,2.156c-3.247,0-6.094,2.8-6.094,6.88v.092c0,4.128,2.847,6.88,6.094,6.88s5.961-2.615,5.961-6.88v-.092C347.518,31.188,344.8,28.482,341.557,28.482Zm65.524-.046c-3.214,0-5.9,2.651-5.96,6.752v.22c0,4.266,2.669,6.926,5.961,6.926,3.258,0,6.081-2.741,6.095-6.8v-.218C413.175,31.234,410.328,28.436,407.081,28.436ZM373.274,18.253v.092h0a2.4,2.4,0,1,1-2.479-2.476h.077A2.408,2.408,0,0,1,373.274,18.253Z" transform="translate(-257.892 -14.739)" fill="#6db33f"/>
      <g id="Group_1" data-name="Group 1" transform="translate(0)">
        <path id="Path_7" data-name="Path 7" d="M6.576,5.617a22.735,22.735,0,0,1,30.471.495A16.7,16.7,0,0,0,39.36,2.359c2.713,7.67,4.359,14.1,3.737,19.094A19.171,19.171,0,0,1,38.07,32.917C30.419,41.33,16.807,42.4,7.733,35.309h0l-.174-.144-.03-.019L7.466,35.1a1.689,1.689,0,0,1-.224-.192l-.024-.026-.286-.235a9.14,9.14,0,0,1-.773-.662l-.117-.121A18.977,18.977,0,0,1,6.576,5.617Zm3.2,26.847a1.932,1.932,0,0,0-2.58.247,1.623,1.623,0,0,0-.006,2.147l.025.026.341.281.033.021A1.932,1.932,0,0,0,10,34.911l.049-.056A1.651,1.651,0,0,0,9.779,32.463ZM39.138,4.421c-2.224,4.33-7.74,7.629-12.5,8.66a30.538,30.538,0,0,1-5.267.585l-.507.024a22.342,22.342,0,0,0-6.77,1.041C4.663,18.071,4.841,28.463,10,30.814h0l.311.165s3.415-.63,6.939-1.479l.316-.077.158-.039.316-.078c1.472-.368,2.92-.769,4.1-1.173,6.139-2.1,12.9-7.3,15.124-13.32-1.157,6.268-6.984,12.33-12.811,15.094-3.114,1.484-5.516,1.814-10.631,3.464-.623.206-1.112.412-1.112.412l.088-.011.175-.021h0l.174-.021c1.129-.129,2.142-.194,2.142-.194,7.251-.33,18.639,1.9,23.932-4.66C44.653,22.195,41.629,11.39,39.138,4.421Z" transform="translate(0 0)" fill="#6db33f"/>
        <path id="Path_8" data-name="Path 8" d="M40.459,59.923a2.126,2.126,0,0,1,.267,2.778,1.745,1.745,0,0,1-2.58.287,2.077,2.077,0,0,1-.267-2.778A1.745,1.745,0,0,1,40.459,59.923ZM69.818,27.359c2.491,8.093,5.516,20.64.089,28.4-5.293,7.614-16.681,5.028-23.932,5.411,0,0-1.29.1-2.58.287,0,0,.489-.239,1.112-.479,5.116-1.916,7.518-2.3,10.632-4.023,5.827-3.209,11.655-10.248,12.811-17.527C65.725,46.419,58.964,52.453,52.826,54.9c-1.1.436-2.426.868-3.789,1.27l-.315.092c-3.786,1.1-7.729,1.943-7.729,1.943l-.311-.192c-5.16-2.73-5.338-14.8,4.092-18.677,4.137-1.724,8.051-.766,12.544-1.916C62.078,36.218,67.594,32.387,69.818,27.359Z" transform="translate(-30.68 -25.415)" fill="#fff"/>
      </g>
    </g>
  </g>
</svg>
