<svg xmlns="http://www.w3.org/2000/svg" xmlns:xlink="http://www.w3.org/1999/xlink" width="160" height="40" viewBox="0 0 160 40">
  <defs>
    <clipPath id="clip-path">
      <rect id="Rectangle_4" data-name="Rectangle 4" width="160" height="40" transform="translate(-3410 2137)" fill="#fff" stroke="#707070" stroke-width="1"/>
    </clipPath>
  </defs>
  <g id="Mask_Group_3" data-name="Mask Group 3" transform="translate(3410 -2137)" clip-path="url(#clip-path)">
    <g id="stackbit" transform="translate(-3410 2137)">
      <path id="Path_4" data-name="Path 4" d="M229.353,12.225c4.453,0,7.558,3.329,8.771,7.887l-3.49,5.462c0-4.318-2.021-7.383-5.281-7.383-2.641,0-4.532,1.883-4.532,4.989,0,2.828,1.521,3.973,3.563,4.775l.544.2h0l.563.192h0l2.071.667h0l.6.211h0l.6.23c3.2,1.284,6.139,3.592,6.139,10.528,0,7.282-4.075,11.408-9.292,11.408-4.372,0-8.011-3.01-9.378-8.57l3.705-5.79c0,5.143,2.15,8.4,5.673,8.4,2.764,0,4.825-1.986,4.825-5.193,0-3.029-1.7-4.161-3.927-4.974l-.566-.2h0l-2.091-.666h0l-.918-.315h0l-.609-.233c-3.131-1.265-5.974-3.536-5.974-10.218C220.354,16.756,224.4,12.225,229.353,12.225Zm16.153,1.84V24.139h4.76v5.615h-4.76V41.57c0,3,.685,3.768,2.316,3.768a8.989,8.989,0,0,0,2.25-.408v5.757a6.608,6.608,0,0,1-1.985.532l-.489.059c-.145.014-.27.021-.362.021-3.881,0-5.967-2.547-5.967-8.81V29.754H238.2V24.149h3.071V20.69Zm92.4,0V24.139h4.76v5.615h-4.76V41.57c0,3,.685,3.768,2.315,3.768a8.984,8.984,0,0,0,2.25-.408v5.757a6.605,6.605,0,0,1-1.985.532l-.49.059c-.145.014-.269.021-.362.021-3.88,0-5.967-2.547-5.967-8.81V29.754H330.6V24.149h3.071V20.69ZM287.2,30.714l-3.75,3.411c-.39-3.006-2.15-4.888-4.237-4.888-2.764,0-4.728,2.953-4.728,8.045s1.924,8.064,4.728,8.064c2.021,0,3.748-2.089,4.237-4.737l3.652,3.31C285.965,48.145,283,51.4,279.218,51.4c-5.445,0-9.129-5.757-9.129-14.106,0-8.3,3.814-14.106,9.129-14.106C282.966,23.18,286.1,26.439,287.2,30.714Zm5.31-17.51V33.88l6.357-9.726h5.673l-7.3,11.05,7.466,15.419h-5.183l-5.25-10.95-1.76,2.638v8.311h-4.238V13.2Zm17.264,0V26.948c1.3-2.291,3.162-3.768,5.641-3.768,5.02,0,8.54,6.112,8.54,14.21,0,7.995-3.52,14-8.572,14-2.479,0-4.336-1.477-5.64-3.768v3h-4.206V13.2Zm4.794,32.185c2.867,0,4.987-3.209,4.987-7.995,0-4.888-2.12-8.2-4.987-8.2-2.706,0-4.924,3.207-4.924,8.2,0,4.884,2.225,7.99,4.924,7.99ZM325.1,13.2h4.4v6.62h-4.4Zm4.3,10.95V50.622h-4.239V24.148Zm-60.482-.084,0,26.553h-4.086l.065-3.32c-1.307,2.451-3.236,4.078-5.818,4.078-5.068,0-8.6-6.025-8.6-14.042,0-8.119,3.5-14.248,8.566-14.248,2.457,0,4.315,1.48,5.622,3.727V24.069ZM259.86,45.357c2.713,0,4.969-3.118,4.969-8.016,0-5.006-2.256-8.222-4.969-8.222-2.844,0-4.969,3.32-4.969,8.222.012,4.807,2.13,8.024,4.974,8.024Z" transform="translate(-182.669 -11.404)" fill="#002"/>
      <path id="Path_5" data-name="Path 5" d="M18.78,12.3l6.5,4.837a4.284,4.284,0,0,1,1.344,1.811,6.637,6.637,0,0,1,.488,2.192l.011.39V32.6a9.433,9.433,0,0,1-1.466,5.218A4.5,4.5,0,0,1,22.4,39.972l-.284.012H.017l8.337-12.3H18.78ZM27.109,0,18.78,12.3H8.354V27.681L1.835,22.858A4.3,4.3,0,0,1,.5,21.043,6.651,6.651,0,0,1,.01,18.851L0,18.462V7.392A10.5,10.5,0,0,1,.379,4.564a8.25,8.25,0,0,1,1.085-2.4A5.4,5.4,0,0,1,3.089.563,3.732,3.732,0,0,1,4.679.016L5.008,0Z" transform="translate(0 0)" fill="#ff364e"/>
    </g>
  </g>
</svg>
